<svg xmlns="http://www.w3.org/2000/svg" viewBox="0 0 81.3 140.63"><defs><style>.cls-1{fill:#0f1f3c;}</style></defs><g id="Layer_2" data-name="Layer 2"><g id="Layer_2-2" data-name="Layer 2"><path class="cls-1" d="M1.54,133.91a45.94,45.94,0,0,0,5.58,3.15c1.75.87,4.42,2.82,5.68,3.25s3.23.41,5.94,0,3.21-.7,3.5-1.77-.45-1.33-1.48-1.46-3.07.31-3.81-.29a5.35,5.35,0,0,1-1.21-1.68,2,2,0,0,1-.15-1c.05-.33-.26-.78-.37-1.26s-.49-1.13-.65-1.83a2,2,0,0,0-.79-1.15c-.14-.12.07-1.36-.12-1.77s-.55-.1-.55-.1a4,4,0,0,1,0-1c.06-.35.21-1.34,1.85-4.09s4.23-5,6.2-7.35,5.09-6.17,5.79-7.42a4.8,4.8,0,0,1,1.85-2,12.59,12.59,0,0,1,.46,1.3,18.1,18.1,0,0,0,2.18,3.85,13.57,13.57,0,0,0,4.05,3.52c1,.43,1.46-.15,1.64-1s-.43-2-1.11-3.15a6.07,6.07,0,0,1-.63-3.17c0-.74.26-.7.41-1.24s0-.74.2-1-.06-.63.35-1,.09-.77.35-1a3.22,3.22,0,0,0,.39-1.4c0-.27.48,0,.66,0s.5-.72.68-1-.41-.23-.47-.25a5.31,5.31,0,0,1,.84-.7A.77.77,0,0,0,39,99a16.41,16.41,0,0,1,4.2-1.62c2.63-.66,7.57-.68,11.36-.82a34,34,0,0,0,8.2-1.37c.88-.3,3.62.16,4.8,0a22.6,22.6,0,0,0,5-2.06A3.08,3.08,0,0,0,74,89.8c-.17-1.07.08-2.36-.5-3.82a56.44,56.44,0,0,0-5-8.14,35.25,35.25,0,0,0-7.68-7.27c-1.57-1.13-3.27-2.61-5-3S54,66.1,53.42,65.88s-.79-.06-1.15-.19a2.15,2.15,0,0,1-.69-.55c-.13-.11.12-1,.29-1.28s.94-1.77,1.74-3.33a27.15,27.15,0,0,0,1.22-3.38c.14-.14,2.32.35,4.5.42s4.06-.74,6.65-1.14a13.92,13.92,0,0,0,4.4-1.29c.68-.31,1.81,0,3.15-.27s4.22-2.28,4.8-2.63a6,6,0,0,0,2.24-1.42c.64-.84,0-1.23,0-1.23a3.17,3.17,0,0,0,.7-1.36.7.7,0,0,0-.55-.9,1.16,1.16,0,0,0,0-.91c-.23-.41-1-.12-1-.12s.27-.68.12-.93-.62-.31-1.27-.14S75,47.05,74.15,47.28s-1.51.16-1.71-.14.62-1.3,1.11-2A2.56,2.56,0,0,0,74,43.37c0-.82-.59-.84-.84-.37s-1.28,1.38-1.44,1.81-1,1.17-1.34,2a28.81,28.81,0,0,1-1.89,4C68,51.44,64.29,51.93,63,52a9.64,9.64,0,0,1-3.67-.78A5.2,5.2,0,0,1,60,49a17.12,17.12,0,0,0,.74-3.36c.21-1.13,1.09-1.64,2-3.06a9.12,9.12,0,0,0,1-5.37c-.17-1.71-1.47-5.95-1.75-7.14a46.66,46.66,0,0,1-1.44-5.18c-.13-1.36,1.35-1.67,1.75-2.14s.06-1.48.39-1.81,1.44.14,2.65-.07,1.28-1.42,1.34-2.09.51-.52.76-1a.68.68,0,0,0-.21-.82.9.9,0,0,0,.5-.29c.14-.23,0-.54,0-1.13s1.66-.5,1.66-1.07-.86-1.4-1.25-2.14.16-1.34.45-2a2.16,2.16,0,0,0-.19-1.53.78.78,0,0,0,.47-.2,2.07,2.07,0,0,0,.63-1,1.39,1.39,0,0,0,0-.41,1.51,1.51,0,0,0,0-.76,2.51,2.51,0,0,0-.29-.69l-.07-.11a1.39,1.39,0,0,0,0-.5,1.32,1.32,0,0,0-.07-.32c0-.06,0-.12,0-.19a3.81,3.81,0,0,0-2.08-3.41C66.35.84,65.74,1,65,.85S63.36.25,62.52.09A7.89,7.89,0,0,0,60,.12c-1.46.17-2.92.34-4.36.62-.72.13-1.54.39-1.78,1.07-.13.38,0,.8-.2,1.16-.21.52-.81.78-1.1,1.25a2.76,2.76,0,0,0-.23,1.59A17.18,17.18,0,0,1,52,9.16a2.92,2.92,0,0,0,0,1.14c.05.25.25.64.14.89a2.88,2.88,0,0,0-.13.31,1.08,1.08,0,0,0,.11.95,4.6,4.6,0,0,0,.12.84c0,.16.09.31.14.46a1.83,1.83,0,0,0,0,.81,1.42,1.42,0,0,0,.63.81,5.79,5.79,0,0,1,.65.48,1.06,1.06,0,0,1,.15.15,2.44,2.44,0,0,1,0,.79c-.11.31-1.13.35-2.53.47s-2.15.64-4,1.49-4.39,4.42-5.43,5.35-2.61,1.56-5.27,3.16-5.24,4.93-6.34,6.19-1.62,1.13-2.08,2.2.52,2.14.9,3.13,1.16,5.29,2.53,8.55a34.56,34.56,0,0,0,3.41,6c1,1.67,1.85,3,1.9,3.11s-.62.18-.89.26a15.76,15.76,0,0,0-2.65,2.88,12.84,12.84,0,0,0-1.88,3.73c-.61,1.5-.7,4.89-1.07,5.74a6,6,0,0,0-.39,2.22c0,.33-.53,1-1.46,2.39A14.64,14.64,0,0,0,27,77.4c-.39,1-.68,1.87.08,2.18l1.94.76a17.54,17.54,0,0,0-1,2.26,18.65,18.65,0,0,0-1.4,5.93A15.83,15.83,0,0,1,26,92.77a1.26,1.26,0,0,0-.68.11c-.28.17-.33.9-.29,1.61a12,12,0,0,0,.29,1.73,25,25,0,0,1-2.53,3.89c-1.29,1.51-3.59,3.54-6.25,6.75s-3.15,7-4.42,9.11-4.56,7.27-5.32,8.35a21.75,21.75,0,0,1-1.58,2s-.48-.82-.83-.78-.32.67-.3,1.18-.94,1.2-1.5,2.23-.77,1.51-.77,1.51A3.07,3.07,0,0,0,.27,131C-.33,131.51.06,132.86,1.54,133.91ZM41.79,87.55c.93-1.7,1.92-3.62,2.5-4.53s1-1.7,1.51-1.62,1.48-.41,1.94-.35.31.25,2,1,4.86,1.84,5.76,2.31,2.23.76,2.06,1a38.67,38.67,0,0,0-4.85,1.32c-3.16,1.21-5.44,2.58-8.89,3.79s-4.45,1.34-4.56,1.26S40.86,89.25,41.79,87.55ZM37.65,37.71a15.42,15.42,0,0,0,2.85-.83,21.45,21.45,0,0,0,2.06-1s-.06,1-.38,3.4-.11,4.36-.47,6a25.43,25.43,0,0,1-1,3.65c-.3.83-.6,1.57-.6,1.57a14.28,14.28,0,0,1-1-2.64c-.11-.79-.35-4-.71-6.28S37.46,37.82,37.65,37.71Z"/></g></g></svg>