<svg xmlns="http://www.w3.org/2000/svg" viewBox="0 0 133.65 219.28"><defs><style>.cls-1{fill:#1f385b;}.cls-2{fill:#081528;}</style></defs><g id="Layer_2" data-name="Layer 2"><g id="Layer_2-2" data-name="Layer 2"><path class="cls-1" d="M30,21.91A47.43,47.43,0,0,0,38.2,43.6c6.21,8.71,14.53,14.15,25.31,15.18a32.73,32.73,0,0,0,25.94-8.55c9.16-8.25,13.42-18.91,14.39-30.95.42-5.24.23-10.53.3-15.8A14.32,14.32,0,0,0,104,2L101.7,1.6V3.22c0,3.39,0,6.78,0,10.17A54.14,54.14,0,0,1,100.43,26C98.58,34.29,95,41.73,88.69,47.6c-8,7.46-17.47,10.31-28.26,8.18-8.78-1.73-15.47-6.72-20.52-14-5.35-7.68-7.63-16.37-8-25.6-.16-4.27,0-8.55-.05-12.83V1.61L30,1.93a5,5,0,0,0-.63.25C29.56,8.8,29.09,15.37,30,21.91Z"/><path class="cls-1" d="M23,54.33a96.41,96.41,0,0,0,2-18.78c.15-10.38.1-20.76.12-31.14C25.07,4,25,3.51,25,3l-2.72.57V5.41q0,13.06,0,26.14a114.29,114.29,0,0,1-1.59,20.23,43,43,0,0,1-8.69,19.81c-2.06,2.55-4.37,4.89-6.71,7.5.1.8.23,1.82.4,3.11,1.08-1,2-1.8,2.91-2.65A47.47,47.47,0,0,0,23,54.33Z"/><path class="cls-1" d="M109.79,49.91a49,49,0,0,0,16.88,31.16c.37.33.78.63,1.3,1,.16-1.23.29-2.25.41-3.19-.72-.73-1.32-1.37-2-2a44.49,44.49,0,0,1-13-22.89,88.73,88.73,0,0,1-2-18.15c-.13-10.18-.07-20.35-.1-30.52V3.47L108.58,3c0,.49-.06.79-.06,1.1,0,9.34,0,18.68,0,28A135.76,135.76,0,0,0,109.79,49.91Z"/><path class="cls-1" d="M1.87,209.38l-.32,2.54c28.06,5.41,56.23,6.53,84.53,5.32a304.16,304.16,0,0,0,46-5.34l-.37-2.44A385.69,385.69,0,0,1,1.87,209.38Z"/><path class="cls-1" d="M34,14.05A33.92,33.92,0,0,0,48.12,26.94a42.82,42.82,0,0,0,22.34,4A39.16,39.16,0,0,0,86.7,26.3a34,34,0,0,0,13.41-13.13V6.91c-.5,1.06-.84,1.8-1.2,2.53a31.42,31.42,0,0,1-17,16,40.56,40.56,0,0,1-23.93,1.88C47,25,39,18.77,34.28,8.54l-.62-1.37-.23,0c0,1.86,0,3.71,0,5.57A3,3,0,0,0,34,14.05Z"/><path class="cls-1" d="M101.31.06c3.68.83,7.59,1.28,11.45,2.44V4.76c0,8.71,0,17.42.12,26.13.1,5.26.36,10.53.85,15.77,1.15,12.4,6.18,22.91,15.72,31.11l.53.46c-.24,2.17-.49,4.34-.72,6.5-.29,2.75-.64,5.49-.83,8.25-.83,11.81-1.19,23.65-.91,35.49q.3,13,.93,26.11c.38,7.55.93,15.09,1.55,22.62.64,7.68,1.41,15.36,2.19,23,.4,4,1,8,1.45,11.94,0,.3,0,.6,0,1.14A376.7,376.7,0,0,1,0,213.3c.15-1.47.27-2.7.4-3.93.83-7.77,1.74-15.53,2.45-23.31.8-8.72,1.55-17.45,2.09-26.18,1-15.57,1.6-31.16,1.22-46.76C6,105.25,5.46,97.39,5,89.54c-.21-3.22-.74-6.42-1.11-9.63-.06-.51-.09-1-.13-1.57,1.7-1.72,3.44-3.37,5.06-5.12A42.84,42.84,0,0,0,19.45,50.5c1.31-8.06,1.41-16.19,1.49-24.32.07-7.2,0-14.4,0-21.6,0-.62,0-1.23.08-1.91a4.92,4.92,0,0,1,1.13-.59C25.61,1.38,29.08.71,32.76,0a6.67,6.67,0,0,1,.73,1.43c3.16,12.85,11,21.17,23.94,24.27a38.79,38.79,0,0,0,23.8-1.53c10.11-4,16.06-11.69,18.89-22C100.31,1.45,100,.54,101.31.06Zm26.52,83c-.44-.39-.89-.75-1.28-1.16-2.55-2.68-5.28-5.22-7.61-8.07-6.49-8-9.22-17.38-10.27-27.39a222.72,222.72,0,0,1-.89-22.66q0-9.63,0-19.26V2.76l-2.2-.26V4.41c0,3.23,0,6.47,0,9.7a56.11,56.11,0,0,1-1,11.35c-1.72,8.77-5.21,16.71-11.38,23.27-8.54,9.08-19.08,13.05-31.46,11.36-9.64-1.32-17.37-6.21-23.35-13.82-6.63-8.44-9.71-18.2-10.18-28.83-.19-4.37-.06-8.76-.07-13.14,0-.56,0-1.12,0-1.86l-2.21.36c0,.78,0,1.4,0,2-.07,10.33-.11,20.66-.22,31a101,101,0,0,1-1.56,16.64A47.37,47.37,0,0,1,11.34,77.87C9.56,79.69,7.7,81.43,5.88,83.2,6.32,88.61,7,94,7.13,99.41c.31,9.23.43,18.46.45,27.7,0,6.46-.2,12.93-.47,19.39-.29,6.88-.75,13.75-1.18,20.62-.21,3.33-.52,6.65-.8,10-.35,4.11-.68,8.21-1.06,12.31-.33,3.53-.72,7-1.09,10.57-.3,2.83-.62,5.67-1,8.74a383.27,383.27,0,0,0,129.54.1c0-.51,0-.76,0-1-.67-6.58-1.39-13.16-2-19.75-.64-6.8-1.26-13.6-1.75-20.41-.51-7.07-1-14.15-1.22-21.23-.31-10.22-.44-20.45-.49-30.67,0-5.58.18-11.16.48-16.73C126.86,93.75,127.39,88.52,127.83,83.1Zm-27.54-68-.31-.08c-.2.28-.41.55-.61.84A35.17,35.17,0,0,1,80,29.93a46.29,46.29,0,0,1-21.34,1.16A35.76,35.76,0,0,1,35.92,18c-.77-1-1.48-2-2.37-3.14a10.4,10.4,0,0,0,0,1.12c.31,2.95.44,5.93,1,8.84C36,32.79,39.27,40,45.07,45.72c8,8,17.63,11,28.74,8.5,8.4-1.92,14.66-7,19.34-14.1a44,44,0,0,0,6.69-19C100.09,19.16,100.15,17.14,100.29,15.14ZM29.47,2.24c.15,6.62-.32,13.19.56,19.74a47.4,47.4,0,0,0,8.23,21.68c6.21,8.71,14.54,14.15,25.31,15.18A32.73,32.73,0,0,0,89.51,50.3c9.16-8.25,13.42-18.92,14.39-31,.42-5.24.23-10.53.3-15.8a14.32,14.32,0,0,0-.11-1.47l-2.33-.41V3.28c0,3.39,0,6.78,0,10.18A54.74,54.74,0,0,1,100.5,26c-1.86,8.32-5.43,15.76-11.75,21.64-8,7.46-17.47,10.3-28.26,8.18C51.71,54.11,45,49.12,40,41.87c-5.35-7.68-7.63-16.36-8-25.59C31.84,12,32,7.72,32,3.44c0-.56,0-1.12,0-1.76-.74.12-1.3.21-1.86.32A6.4,6.4,0,0,0,29.47,2.24ZM131.75,209.53a386.21,386.21,0,0,1-129.82-.08L1.61,212c28.06,5.41,56.23,6.52,84.53,5.31a301.89,301.89,0,0,0,46-5.34ZM128.44,79c-.72-.73-1.32-1.37-2-2a44.41,44.41,0,0,1-13-22.89,88,88,0,0,1-2-18.15c-.14-10.17-.08-20.34-.11-30.52V3.54l-2.76-.45c0,.48-.06.79-.06,1.1,0,9.33,0,18.67,0,28A135.48,135.48,0,0,0,109.85,50a49,49,0,0,0,16.88,31.17c.37.33.78.62,1.3,1ZM5.68,82.27c1.09-1,2-1.81,2.91-2.65A47.5,47.5,0,0,0,23,54.4a96.59,96.59,0,0,0,2-18.79c.15-10.37.1-20.76.12-31.14,0-.45-.06-.89-.1-1.44l-2.72.58V5.48q0,13.06,0,26.13a114.33,114.33,0,0,1-1.59,20.24A43,43,0,0,1,12,71.66c-2.06,2.54-4.37,4.89-6.71,7.49Zm28-75-.23,0c0,1.85,0,3.71,0,5.56a2.93,2.93,0,0,0,.55,1.26A33.85,33.85,0,0,0,48.18,27a42.82,42.82,0,0,0,22.34,4,39.11,39.11,0,0,0,16.24-4.6,34,34,0,0,0,13.41-13.13V7C99.67,8,99.33,8.77,99,9.5a31.48,31.48,0,0,1-17,16A40.63,40.63,0,0,1,58,27.33C47,25,39.07,18.84,34.34,8.6,34.13,8.15,33.93,7.69,33.72,7.24Z"/><path class="cls-1" d="M131.51,208.75c0-.51,0-.77,0-1-.67-6.58-1.39-13.16-2-19.74-.64-6.8-1.26-13.6-1.75-20.41-.51-7.07-1-14.15-1.22-21.24-.31-10.22-.44-20.44-.49-30.66,0-5.58.18-11.17.48-16.74.28-5.25.81-10.49,1.25-15.9-.44-.4-.89-.75-1.28-1.17-2.55-2.67-5.28-5.21-7.61-8.07-6.49-8-9.22-17.37-10.27-27.39a222.6,222.6,0,0,1-.89-22.66q0-9.63,0-19.25V2.69l-2.2-.26V4.34c0,3.24,0,6.47,0,9.71a56.18,56.18,0,0,1-1,11.35c-1.72,8.76-5.21,16.7-11.38,23.26C84.6,57.75,74.06,61.72,61.67,60,52,58.71,44.31,53.82,38.33,46.21,31.7,37.76,28.62,28,28.15,17.38,28,13,28.09,8.62,28.08,4.23c0-.56,0-1.11,0-1.85l-2.21.36c0,.78,0,1.4,0,2-.07,10.33-.11,20.66-.22,31a100.88,100.88,0,0,1-1.56,16.63A47.34,47.34,0,0,1,11.28,77.8c-1.78,1.83-3.64,3.57-5.46,5.34.43,5.41,1.07,10.8,1.25,16.21.31,9.22.43,18.46.44,27.69,0,6.47-.19,12.94-.46,19.4-.29,6.88-.75,13.74-1.18,20.61-.21,3.33-.52,6.65-.8,10-.35,4.1-.68,8.2-1.06,12.3-.33,3.53-.72,7-1.09,10.58-.3,2.83-.62,5.66-.95,8.74A383.27,383.27,0,0,0,131.51,208.75Z"/><path class="cls-2" d="M99.31,15.83A35.12,35.12,0,0,1,80,29.86,46.15,46.15,0,0,1,58.63,31,35.74,35.74,0,0,1,35.86,18c-.77-1-1.48-2-2.37-3.15a8.41,8.41,0,0,0-.05,1.12c.31,3,.44,5.94,1,8.84C36,32.72,39.21,39.89,45,45.65c8,8,17.63,11,28.74,8.5,8.4-1.92,14.66-7,19.34-14.09a44,44,0,0,0,6.69-19c.25-2,.31-4,.45-6L99.92,15Z"/></g></g></svg>