<svg xmlns="http://www.w3.org/2000/svg" viewBox="0 0 118.09 116.23"><defs><style>.cls-1{fill:#0f1f3c;}</style></defs><g id="Layer_2" data-name="Layer 2"><g id="Layer_2-2" data-name="Layer 2"><path class="cls-1" d="M99.14,74.82l-3.26-2.65a48.41,48.41,0,0,1-6.16,10,62.54,62.54,0,0,0-12.59-6.9c.39-1,.74-2,1.08-3.06l-6.57,5.35.13,0a58.61,58.61,0,0,1-8.15,12.67h5.2A62,62,0,0,0,75.58,79a58.61,58.61,0,0,1,11.47,6.23A48.26,48.26,0,0,1,73.29,95.31v4.5A52,52,0,0,0,99.14,74.82Z"/><path class="cls-1" d="M68.61,97.3a47.9,47.9,0,0,1-8.38,2.23,64.1,64.1,0,0,0,4.7-4.62H59.25a61.3,61.3,0,0,1-5.09,4.4v-4.4h-4v4.82a60.47,60.47,0,0,1-5.64-4.82H42.83l.92-.75a58.84,58.84,0,0,1-11.46-16,60.11,60.11,0,0,1,17.84-3.55V89l4-3.27V74.58A60.88,60.88,0,0,1,66.08,76L70,72.84a64.26,64.26,0,0,0-15.83-2.29V55.82h23.1a60.55,60.55,0,0,1-2.2,12.9l5.14-4.18a64.73,64.73,0,0,0,1.09-8.72h18.83A48,48,0,0,1,97.7,67.62L101,70.34A52.21,52.21,0,0,0,54.37,0l-5,0,0,0a52.15,52.15,0,0,0,0,104.15h5a52.6,52.6,0,0,0,14.24-2.59ZM91.22,24.06a47.58,47.58,0,0,1,9,27.7H81.41a64.22,64.22,0,0,0-3.29-20.06A63.74,63.74,0,0,0,91.22,24.06Zm-2.49-3.17a59.56,59.56,0,0,1-12,7A63.07,63.07,0,0,0,60.22,4.68,47.84,47.84,0,0,1,88.73,20.89ZM54.16,4.9A59.17,59.17,0,0,1,73,29.41a59.1,59.1,0,0,1-18.81,3.46Zm0,32a63,63,0,0,0,20.2-3.72,60.26,60.26,0,0,1,3,18.59H54.16Zm-4,33.69a64.37,64.37,0,0,0-19.47,3.88,59.42,59.42,0,0,1-4.17-18.65H50.13Zm0-18.81H26.37a60.16,60.16,0,0,1,3.24-19.29,63.42,63.42,0,0,0,20.52,4.35Zm0-47.31V32.82a59.11,59.11,0,0,1-19.07-4.08A59.36,59.36,0,0,1,50.13,4.48Zm-6.74.32a63.2,63.2,0,0,0-16,22.34A59.75,59.75,0,0,1,16.18,20.2,48,48,0,0,1,43.39,4.8ZM13.63,23.32a63.18,63.18,0,0,0,12.26,7.59A64.1,64.1,0,0,0,22.33,51.8H4A47.6,47.6,0,0,1,13.63,23.32Zm1.52,59.49a47.5,47.5,0,0,1-11-27H22.46A63.55,63.55,0,0,0,26.91,76,62.8,62.8,0,0,0,15.15,82.81Zm2.72,3a58.29,58.29,0,0,1,10.66-6.13A62.55,62.55,0,0,0,43.38,99.4,48.27,48.27,0,0,1,17.87,85.82Z"/><polygon class="cls-1" points="87.05 65 56.01 90.23 73.29 90.23 73.29 116.23 100.65 116.23 100.65 90.23 118.09 90.23 87.05 65"/></g></g></svg>